<?xml version="1.0" encoding="UTF-8" standalone="no"?>
<svg
   xmlns:dc="http://purl.org/dc/elements/1.1/"
   xmlns:cc="http://creativecommons.org/ns#"
   xmlns:rdf="http://www.w3.org/1999/02/22-rdf-syntax-ns#"
   xmlns:svg="http://www.w3.org/2000/svg"
   xmlns="http://www.w3.org/2000/svg"
   xmlns:sodipodi="http://sodipodi.sourceforge.net/DTD/sodipodi-0.dtd"
   xmlns:inkscape="http://www.inkscape.org/namespaces/inkscape"
   width="32"
   height="32"
   id="svg3869"
   version="1.1"
   viewBox="0 0 32 32.000001"
   sodipodi:docname="input.svg"
   inkscape:version="1.0.2 (e86c870879, 2021-01-15)">
  <sodipodi:namedview
     pagecolor="#ffffff"
     bordercolor="#000000"
     borderopacity="1"
     objecttolerance="10"
     gridtolerance="10"
     guidetolerance="10"
     inkscape:pageopacity="0"
     inkscape:pageshadow="2"
     inkscape:window-width="1920"
     inkscape:window-height="1007"
     id="namedview49"
     showgrid="false"
     inkscape:zoom="3.2809755"
     inkscape:cx="24.563805"
     inkscape:cy="-152.8199"
     inkscape:window-x="0"
     inkscape:window-y="0"
     inkscape:window-maximized="1"
     inkscape:current-layer="svg3869"
     inkscape:document-rotation="0"
     inkscape:lockguides="false">
    <inkscape:grid
       type="xygrid"
       id="grid874"
       originx="-38"
       originy="-224" />
  </sodipodi:namedview>
  <metadata
     id="metadata25">
    <rdf:RDF>
      <cc:Work
         rdf:about="">
        <dc:format>image/svg+xml</dc:format>
        <dc:type
           rdf:resource="http://purl.org/dc/dcmitype/StillImage" />
        <dc:title />
      </cc:Work>
    </rdf:RDF>
  </metadata>
  <defs
     id="defs3871">
    <style
       type="text/css"
       id="current-color-scheme" />
  </defs>
  <g
     transform="translate(-370,-620.36216)"
     id="22-22-input-keyboard-battery">
    <rect
       style="opacity:1;fill:none"
       width="22"
       height="22"
       x="348"
       y="534.36218"
       ry="0"
       id="rect15" />
    <path
       style="fill:#d3dae3;fill-opacity:1;stroke:none"
       d="m 20,141 v 14 l 7,2 7,-2 v -5 h -1 v 2 H 21 v -10 h 8 v -1 z m 12,0 -2,5 h 2 v 3 l 2,-5 H 32 Z M 26.4375,144 24,150 h 1.074219 l 0.40625,-1 h 3.039062 l 0.40625,1 H 30 l -2.439453,-6 H 27.023438 L 27,144.00977 26.976562,144 Z M 27,145.25781 28.113281,148 H 25.886719 Z M 21,153 h 12 v 1 H 21 Z"
       transform="translate(332,396.36218)"
       id="path17" />
  </g>
  <g
     transform="translate(-392,-652.36216)"
     id="22-22-input-keyboard-brightness">
    <rect
       ry="0"
       y="534.36218"
       x="370"
       height="22"
       width="22"
       style="opacity:1;fill:none"
       id="rect20" />
    <path
       style="fill:#d3dae3;fill-opacity:1;stroke:none"
       d="m 20,109 v 14 l 7,2 7,-2 v -9 h -1 v 6 H 21 v -10 h 8 v -1 z m 12,0 c -1.10457,0 -2,0.89543 -2,2 0,1.10457 0.89543,2 2,2 1.10457,0 2,-0.89543 2,-2 0,-1.10457 -0.89543,-2 -2,-2 z m 0,1 v 2 c -0.55228,0 -1,-0.44771 -1,-1 0,-0.55228 0.44772,-1 1,-1 z M 26.4375,112 24,118 h 1.074219 l 0.40625,-1 h 3.039062 l 0.40625,1 H 30 l -2.439453,-6 H 27.023438 L 27,112.00977 26.976562,112 Z M 27,113.25781 28.113281,116 H 25.886719 Z M 21,121 h 12 v 1 H 21 Z"
       transform="translate(354,428.36218)"
       id="path4344" />
  </g>
  <g
     id="input-keyboard-battery"
     transform="translate(-370,-652.36235)">
    <rect
       style="opacity:1;fill:none"
       id="rect4378"
       width="32"
       height="32"
       x="370"
       y="556.36237"
       ry="0" />
    <path
       style="fill:#d3dae3;fill-opacity:1;stroke:none"
       d="m 44,132 v 20 l 10,4 10,-4 v -11 h -1 v 8 H 45 v -16 h 14 v -1 z m 18,0 -2,5 h 2 v 3 l 2,-5 H 62 Z M 53.40625,136 49,146 h 1.300781 l 1.322266,-3 h 4.722656 l 1.349609,3 H 59 l -4.5,-10 z m 0.552734,1.69531 1.9375,4.30469 H 52.0625 Z M 45,150 h 18 v 1 H 45 Z"
       transform="translate(332,428.36237)"
       id="rect4223" />
  </g>
  <g
     id="input-keyboard-brightness"
     transform="translate(-402,-684.36235)">
    <rect
       ry="0"
       y="556.36237"
       x="402"
       height="32"
       width="32"
       id="rect4266"
       style="opacity:1;fill:none" />
    <path
       style="fill:#d3dae3;fill-opacity:1;stroke:none"
       d="m 44,100 v 20 l 10,4 10,-4 v -10 h -1 v 7 H 45 v -16 h 12 v -1 z m 9.40625,4 L 49,114 h 1.300781 l 1.322266,-3 h 4.722656 l 1.349609,3 H 59 l -4.5,-10 z m 0.552734,1.69531 1.9375,4.30469 H 52.0625 Z M 45,118 h 18 v 1 H 45 Z"
       transform="translate(364,460.36237)"
       id="path4270" />
    <path
       style="fill:#00b4b4;fill-opacity:1;stroke:none"
       d="m 100,25 c -0.277,0 -0.5,0.223 -0.5,0.5 v 1 c 0,0.277 0.223,0.5 0.5,0.5 0.277,0 0.5,-0.223 0.5,-0.5 v -1 c 0,-0.277 -0.223,-0.5 -0.5,-0.5 z m -3.181641,1.318359 c -0.127809,0 -0.255581,0.04855 -0.353515,0.146485 -0.195869,0.195868 -0.195869,0.511162 0,0.707031 l 0.707031,0.707031 c 0.195869,0.195869 0.511163,0.195869 0.707031,0 0.195869,-0.195868 0.195869,-0.511162 0,-0.707031 l -0.707031,-0.707031 c -0.09793,-0.09793 -0.225706,-0.146485 -0.353516,-0.146485 z m 6.363281,0 c -0.12781,0 -0.25558,0.04855 -0.35352,0.146485 l -0.70703,0.707031 c -0.19586,0.195869 -0.19586,0.511163 0,0.707031 0.19587,0.195869 0.51117,0.195869 0.70703,0 l 0.70704,-0.707031 c 0.19586,-0.195869 0.19586,-0.511163 0,-0.707031 -0.0979,-0.09793 -0.22571,-0.146485 -0.35352,-0.146485 z M 100,28 c -1.104569,0 -2,0.895431 -2,2 0,1.104569 0.895431,2 2,2 1.10457,0 2,-0.895431 2,-2 0,-1.104569 -0.89543,-2 -2,-2 z m 0,1 v 2 c -0.552285,0 -1,-0.447715 -1,-1 0,-0.552285 0.447715,-1 1,-1 z m -4.5,0.5 c -0.277,0 -0.5,0.223 -0.5,0.5 0,0.277 0.223,0.5 0.5,0.5 h 1 c 0.277,0 0.5,-0.223 0.5,-0.5 0,-0.277 -0.223,-0.5 -0.5,-0.5 z m 8,0 c -0.277,0 -0.5,0.223 -0.5,0.5 0,0.277 0.223,0.5 0.5,0.5 h 1 c 0.277,0 0.5,-0.223 0.5,-0.5 0,-0.277 -0.223,-0.5 -0.5,-0.5 z m -5.974609,2.474609 c -0.12781,0 -0.255582,0.04855 -0.353516,0.146485 l -0.707031,0.707031 c -0.195869,0.195869 -0.195869,0.511163 0,0.707031 0.195868,0.195869 0.511162,0.195869 0.707031,0 l 0.707031,-0.707031 c 0.195869,-0.195869 0.195869,-0.511163 0,-0.707031 -0.09793,-0.09793 -0.225706,-0.146485 -0.353515,-0.146485 z m 4.949219,0 c -0.12781,0 -0.25558,0.04855 -0.35352,0.146485 -0.19586,0.195868 -0.19586,0.511162 0,0.707031 l 0.70703,0.707031 c 0.19587,0.195869 0.51117,0.195869 0.70704,0 0.19586,-0.195868 0.19586,-0.511162 0,-0.707031 l -0.70704,-0.707031 c -0.0979,-0.09793 -0.2257,-0.146485 -0.35351,-0.146485 z M 100,33 c -0.277,0 -0.5,0.223 -0.5,0.5 v 1 c 0,0.277 0.223,0.5 0.5,0.5 0.277,0 0.5,-0.223 0.5,-0.5 v -1 c 0,-0.277 -0.223,-0.5 -0.5,-0.5 z"
       transform="translate(326,534.3622)"
       id="path4274"
       inkscape:connector-curvature="0" />
  </g>
  <g
     id="16-16-input-mouse-battery"
     transform="translate(-341,-521.36216)">
    <path
       id="path4196"
       transform="translate(319,457.36217)"
       d="m -8,82 a 4,4 0 0 0 -4,4 v 4 a 4,4 0 0 0 4,4 4,4 0 0 0 4,-4 v -4 a 4,4 0 0 0 -4,-4 z m 0,1 a 3,3 0 0 1 3,3 v 4 a 3,3 0 0 1 -3,3 3,3 0 0 1 -3,-3 v -4 a 3,3 0 0 1 3,-3 z m 0,1 -2,5 h 2 v 3 l 2,-5 h -2 z"
       style="fill:#d3dae3;fill-opacity:1;stroke:none"
       inkscape:connector-curvature="0" />
    <rect
       style="opacity:1;fill:none"
       id="rect4442"
       width="16"
       height="16"
       x="303"
       y="537.36218" />
  </g>
  <g
     id="22-22-input-keyboard-virtual-on"
     transform="translate(-22,-181.99997)">
    <path
       id="path6-6"
       transform="translate(0,-1030.3622)"
       d="m 2,1038.3622 v 11 h 18 v -11 z m 1,1 h 7 1 8 v 1 H 3 Z m 0,2 h 16 v 7 H 15 7 3 Z m 1,1 v 1 h 2 v -1 z m 3,0 v 1 h 2 v -1 z m 3,0 v 1 h 2 v -1 z m 3,0 v 1 h 2 v -1 z m 3,0 v 1 h 2 v -1 z m -12,2 v 1 h 2 v -1 z m 3,0 v 1 h 2 v -1 z m 3,0 v 1 h 2 v -1 z m 3,0 v 1 h 2 v -1 z m 3,0 v 1 h 2 v -1 z m -12,2 v 1 h 2 v -1 z m 3,0 v 1 h 8 v -1 z m 9,0 v 1 h 2 v -1 z"
       style="fill:#d3dae3;fill-opacity:1;stroke:none"
       inkscape:connector-curvature="0" />
    <path
       id="path8"
       d="M 4.5,2 A 2.4999997,2.4999855 0 0 0 2,4.5 2.4999997,2.4999855 0 0 0 4.5,7 2.4999997,2.4999855 0 0 0 7,4.5 2.4999997,2.4999855 0 0 0 4.5,2 Z"
       style="fill:#00b4b4;fill-opacity:1;stroke:none"
       inkscape:connector-curvature="0" />
    <rect
       y="0"
       x="0"
       height="22"
       width="22"
       id="rect4140"
       style="fill:none;fill-opacity:1;stroke:none;stroke-linejoin:bevel" />
  </g>
  <g
     transform="matrix(1.4545455,0,0,1.4545455,0,-191.99997)"
     id="input-keyboard-virtual-on">
    <rect
       style="fill:none;fill-rule:evenodd;stroke:none;stroke-width:1px;stroke-linecap:butt;stroke-linejoin:miter;stroke-opacity:1"
       id="rect4192"
       width="22"
       height="22"
       x="0"
       y="0" />
    <path
       transform="matrix(0.68749998,0,0,0.68749998,-15.124999,22.000003)"
       style="fill:#d3dae3;fill-opacity:1;stroke:none"
       d="M 25,-21 V -4 H 25.5 51 v -17 z m 1,1 h 24 v 2 H 26 Z m 0,3 H 50 V -5 H 26 Z m 1,2 v 2 h 1 v -2 z m 2,0 v 2 h 2 v -2 z m 3,0 v 2 h 2 v -2 z m 3,0 v 2 h 2 v -2 z m 3,0 v 2 h 2 v -2 z m 3,0 v 2 h 2 v -2 z m 3,0 v 2 h 2 v -2 z m 3,0 v 2 h 2 v -2 z m -20,3 v 2 h 3 v -2 z m 4,0 v 2 h 2 v -2 z m 3,0 v 2 h 2 v -2 z m 3,0 v 2 h 2 v -2 z m 3,0 v 2 h 2 v -2 z m 3,0 v 2 h 2 v -2 z m 3,0 v 2 h 3 v -2 z m -19,3 v 2 h 2 v -2 z m 3,0 v 2 h 2 v -2 z m 3,0 v 2 h 10 v -2 z m 11,0 v 2 h 2 v -2 z m 3,0 v 2 h 2 v -2 z"
       id="path4194"
       inkscape:connector-curvature="0" />
    <path
       id="path8-9"
       d="m 3.7812499,2.7500013 a 1.7187497,1.71874 0 0 0 -1.71875,1.7187499 1.7187497,1.71874 0 0 0 1.71875,1.71875 1.7187497,1.71874 0 0 0 1.71875,-1.71875 1.7187497,1.71874 0 0 0 -1.71875,-1.7187499 z"
       style="fill:#00b4b4;fill-opacity:1;stroke:none"
       inkscape:connector-curvature="0" />
  </g>
  <g
     transform="translate(-22,-149.99997)"
     id="22-22-input-keyboard-virtual-off">
    <path
       style="fill:#d3dae3;fill-opacity:1;stroke:none"
       d="m 2,1038.3622 v 11 h 18 v -11 z m 1,1 h 7 1 8 v 1 H 3 Z m 0,2 h 16 v 7 H 15 7 3 Z m 1,1 v 1 h 2 v -1 z m 3,0 v 1 h 2 v -1 z m 3,0 v 1 h 2 v -1 z m 3,0 v 1 h 2 v -1 z m 3,0 v 1 h 2 v -1 z m -12,2 v 1 h 2 v -1 z m 3,0 v 1 h 2 v -1 z m 3,0 v 1 h 2 v -1 z m 3,0 v 1 h 2 v -1 z m 3,0 v 1 h 2 v -1 z m -12,2 v 1 h 2 v -1 z m 3,0 v 1 h 8 v -1 z m 9,0 v 1 h 2 v -1 z"
       transform="translate(0,-1030.3622)"
       id="path4170"
       inkscape:connector-curvature="0" />
    <rect
       style="fill:none;fill-opacity:1;stroke:none;stroke-linejoin:bevel"
       id="rect4172"
       width="22"
       height="22"
       x="0"
       y="0" />
  </g>
  <g
     transform="matrix(1.4545455,0,0,1.4545455,0,-159.99997)"
     id="input-keyboard-virtual-off">
    <rect
       style="fill:none;fill-rule:evenodd;stroke:none;stroke-width:1px;stroke-linecap:butt;stroke-linejoin:miter;stroke-opacity:1"
       id="rect4176"
       width="22"
       height="22"
       x="0"
       y="0" />
    <path
       transform="matrix(0.68749998,0,0,0.68749998,-15.124999,22.000003)"
       style="fill:#d3dae3;fill-opacity:1;stroke:none"
       d="M 25,-21 V -4 H 25.5 51 v -17 z m 1,1 h 24 v 2 H 26 Z m 0,3 H 50 V -5 H 26 Z m 1,2 v 2 h 1 v -2 z m 2,0 v 2 h 2 v -2 z m 3,0 v 2 h 2 v -2 z m 3,0 v 2 h 2 v -2 z m 3,0 v 2 h 2 v -2 z m 3,0 v 2 h 2 v -2 z m 3,0 v 2 h 2 v -2 z m 3,0 v 2 h 2 v -2 z m -20,3 v 2 h 3 v -2 z m 4,0 v 2 h 2 v -2 z m 3,0 v 2 h 2 v -2 z m 3,0 v 2 h 2 v -2 z m 3,0 v 2 h 2 v -2 z m 3,0 v 2 h 2 v -2 z m 3,0 v 2 h 3 v -2 z m -19,3 v 2 h 2 v -2 z m 3,0 v 2 h 2 v -2 z m 3,0 v 2 h 10 v -2 z m 11,0 v 2 h 2 v -2 z m 3,0 v 2 h 2 v -2 z"
       id="path4178"
       inkscape:connector-curvature="0" />
  </g>
  <g
     id="22-22-input-caps-on"
     transform="translate(21.241379,-200.74137)">
    <rect
       y="146.74138"
       x="-43.241379"
       height="22"
       width="22"
       id="rect964"
       style="opacity:0.00100002;fill-opacity:1;stroke:none;stroke-width:0.49066;stroke-linecap:round;stroke-linejoin:round;stroke-miterlimit:4;stroke-dasharray:none;stroke-opacity:1" />
    <path
       inkscape:connector-curvature="0"
       id="path870"
       d="m -39.241379,149.74138 v 14 l 7,2 7,-2 v -14 z m 1,1 h 12 v 10 h -12 z m 5.4375,2 -2.4375,6 h 1.07422 l 0.40625,-1 h 3.03906 l 0.40625,1 h 1.07422 l -2.43945,-6 h -0.53711 l -0.0234,0.01 -0.0234,-0.01 z m 0.5625,1.25781 1.11328,2.74219 h -2.22656 z m -6,7.74219 h 12 v 1 h -12 z"
       style="fill:#d3dae3;fill-opacity:1;stroke:none" />
  </g>
  <g
     id="22-22-input-num-on"
     transform="translate(-46,-138.99999)">
    <rect
       style="opacity:0.00100002;fill-opacity:1;stroke:none;stroke-width:0.49066;stroke-linecap:round;stroke-linejoin:round;stroke-miterlimit:4;stroke-dasharray:none;stroke-opacity:1"
       id="rect972"
       width="22"
       height="22"
       x="24"
       y="117" />
    <path
       inkscape:connector-curvature="0"
       id="path879"
       d="m 28,120 v 14 l 7,2 7,-2 v -14 z m 1,1 h 12 v 10 H 29 Z m 6,2 v 1 h -1 v 1 h 1 v 3 h -1 v 1 h 1 1 1 v -1 h -1 v -5 z m -6,9 h 12 v 1 H 29 Z"
       style="fill:#d3dae3;fill-opacity:1;stroke:none" />
  </g>
  <g
     id="input-caps-on"
     transform="translate(-19,-175.99997)">
    <rect
       y="112"
       x="19"
       height="32"
       width="32"
       id="rect978"
       style="opacity:0.00100002;fill-opacity:1;stroke:none;stroke-width:0.713687;stroke-linecap:round;stroke-linejoin:round;stroke-miterlimit:4;stroke-dasharray:none;stroke-opacity:1" />
    <path
       inkscape:connector-curvature="0"
       id="path880"
       d="m 25,116 v 20 l 10,4 10,-4 v -19 -1 h -1 z m 1,1 h 18 v 16 H 26 Z m 8.40625,3 L 30,130 h 1.30078 l 1.32227,-3 h 4.72265 l 1.34961,3 H 40 l -4.5,-10 z m 0.55273,1.69531 L 36.89648,126 H 33.0625 Z M 26,134 h 18 v 1 H 26 Z"
       style="fill:#d3dae3;fill-opacity:1;stroke:none" />
  </g>
  <g
     id="input-num-on"
     transform="translate(-19,-143.99999)">
    <rect
       style="opacity:0.00100002;fill-opacity:1;stroke:none;stroke-width:0.713687;stroke-linecap:round;stroke-linejoin:round;stroke-miterlimit:4;stroke-dasharray:none;stroke-opacity:1"
       id="rect984"
       width="32"
       height="32"
       x="19"
       y="112" />
    <path
       inkscape:connector-curvature="0"
       id="path896"
       d="m 25,116 v 20 l 10,4 10,-4 v -19 -1 h -1 z m 1,1 h 18 v 16 H 26 Z m 9,3 v 2 h -2 v 1 h 2 v 6 h -2 v 1 h 5 v -1 h -2 v -9 z m -9,14 h 18 v 1 H 26 Z"
       style="fill:#d3dae3;fill-opacity:1;stroke:none" />
  </g>
  <g
     id="input=mouse-battery">
    <g
       id="g907">
      <rect
         style="fill:none"
         id="rect4378-6"
         width="32"
         height="32"
         x="0"
         y="-4.2773436e-06"
         ry="0" />
      <path
         d="m 16.005654,11.773125 a 0.629736,0.629736 0 0 0 0.67282,-0.572904 V 8.77338 a 0.68164542,0.68164542 0 0 0 -1.34582,0 v 2.426841 a 0.629736,0.629736 0 0 0 0.673,0.572904 z"
         id="path4"
         style="fill:#00b4b4;fill-opacity:1;stroke-width:0.266658" />
      <path
         d="M 9.935964,25.15677 C 11.060194,27.228743 12.824934,28 16.005654,28 c 3.18056,0 4.94517,-0.771257 6.06965,-2.84323 1.54293,-2.843229 -0.1407,-7.079235 0.66042,-10.996855 C 23.506164,10.390323 25.341244,4 16.005654,4 6.6701637,4 8.5052837,10.390323 9.2756737,14.159915 c 0.8004903,3.91762 -0.88263,8.153626 0.6602903,10.996855 z m 4.59675,-16.38339 a 1.3929171,1.3929171 0 0 1 1.07287,-1.320088 v -2.17288 a 0.40000507,0.40000507 0 1 1 0.79995,0 v 2.17288 a 1.3929171,1.3929171 0 0 1 1.07293,1.320088 v 2.426841 a 1.3929171,1.3929171 0 0 1 -1.07293,1.320087 v 3.987987 a 0.40000507,0.40000507 0 0 1 -0.79995,0 v -3.987987 a 1.3929171,1.3929171 0 0 1 -1.07287,-1.320087 z M 9.970294,7.060342 c -0.28889,1.271489 0.92896,4.514606 1.14391,5.647161 a 18.30022,18.30022 0 0 1 0.28498,4.600782 c -0.11894,1.807296 -0.055,3.438246 0.65006,4.450001 0.82507,1.183332 1.85,1.85 3.9564,1.85 2.10618,0 3.13112,-0.666668 3.95611,-1.85 0.70547,-1.011755 0.76877,-2.642705 0.65013,-4.450001 a 18.300321,18.300321 0 0 1 0.28518,-4.600782 c 0.21476,-1.132555 1.43291,-4.375672 1.14372,-5.647161 0.73213,1.464613 -0.20181,5.108527 -0.35742,5.793002 -0.40669,1.790691 -0.1684,2.950522 -0.0724,4.409105 0.12575,1.917185 0.24506,3.727866 -0.4802,5.198701 -0.93855,1.903916 -2.42342,2.680469 -5.12491,2.680469 -2.7017,0 -4.18662,-0.776563 -5.12512,-2.680469 -0.72531,-1.470835 -0.60618,-3.281516 -0.48022,-5.198701 0.0959,-1.458583 0.33417,-2.618402 -0.0724,-4.409105 -0.15561,-0.684475 -1.0895403,-4.328389 -0.35747,-5.793002 z"
         id="path6-3"
         style="fill:#d3dae3;fill-opacity:1;fill-rule:nonzero;stroke-width:0.266658" />
    </g>
  </g>
  <g
     id="22-22-input-mouse-battery"
     transform="translate(-22,10.000014)">
    <g
       id="g920">
      <rect
         style="fill:none"
         width="22"
         height="22"
         x="0"
         y="2.6171874e-06"
         ry="0"
         id="rect8" />
      <path
         style="fill:#00b4b4;fill-opacity:1;stroke:none"
         d="m 5,3.00002 -2,5 h 2 v 3 l 2,-5 H 5 Z"
         id="path12"
         inkscape:connector-curvature="0" />
      <path
         d="m 12.937158,8.1820856 a 0.419824,0.419824 0 0 0 0.44861,-0.3819447 V 6.1822602 a 0.45443022,0.45443022 0 0 0 -0.89723,0 V 7.800141 a 0.419824,0.419824 0 0 0 0.44862,0.3819446 z"
         id="path4-3"
         style="fill:#00b4b4;fill-opacity:1;stroke-width:0.177778" />
      <path
         d="M 8.8906683,17.104514 C 9.640278,18.485829 10.816758,19 12.937158,19 c 2.12035,0 3.29683,-0.514171 4.04644,-1.895486 1.0286,-1.895486 -0.0936,-4.719488 0.44023,-7.3312385 C 17.937458,7.2602227 19.160808,3 12.937158,3 6.7134583,3 7.9368483,7.2602227 8.4504383,9.7732755 c 0.53382,2.6117505 -0.58837,5.4357525 0.44023,7.3312385 z M 11.955208,6.1822602 a 0.92861156,0.92861156 0 0 1 0.71527,-0.8800676 V 3.8536124 a 0.26667,0.26667 0 1 1 0.53334,0 v 1.4485802 a 0.92861156,0.92861156 0 0 1 0.71527,0.8800676 V 7.800141 a 0.92861156,0.92861156 0 0 1 -0.71527,0.8800676 v 2.6586484 a 0.26667,0.26667 0 0 1 -0.53334,0 V 8.6802086 A 0.92861156,0.92861156 0 0 1 11.955208,7.800141 Z M 8.9135883,5.0402353 C 8.7209683,5.8878904 9.532948,8.0499686 9.676168,8.8050036 a 12.20014,12.20014 0 0 1 0.1901,3.0671864 c -0.0792,1.204861 -0.0369,2.292166 0.43334,2.966667 0.55,0.788889 1.23333,1.233333 2.63754,1.233333 1.40417,0 2.0875,-0.444444 2.6375,-1.233333 0.47027,-0.674501 0.5125,-1.761806 0.43333,-2.966667 a 12.20022,12.20022 0 0 1 0.19011,-3.0671864 c 0.14323,-0.755035 0.95525,-2.9171132 0.76258,-3.7647683 0.48807,0.9764 -0.13459,3.4056743 -0.23828,3.8619893 -0.27122,1.1938034 -0.11232,1.9670144 -0.0484,2.9394094 0.084,1.278126 0.16338,2.485242 -0.32014,3.465799 -0.62569,1.269278 -1.61562,1.786979 -3.41666,1.786979 -1.80108,0 -2.79101,-0.517708 -3.41671,-1.786979 -0.48351,-0.980557 -0.40417,-2.187673 -0.32014,-3.465799 0.0639,-0.972395 0.22283,-1.7456 -0.0484,-2.9394094 -0.10368,-0.456315 -0.72634,-2.8855893 -0.23828,-3.8619893 z"
         id="path6-67"
         style="fill:#d3dae3;fill-opacity:1;stroke-width:0.177778" />
    </g>
  </g>
  <g
     id="input-keyboard"
     transform="translate(0,-223.99998)">
    <rect
       style="fill:none;fill-rule:evenodd;stroke:none;stroke-width:1.45455px;stroke-linecap:butt;stroke-linejoin:miter;stroke-opacity:1"
       id="rect4196"
       width="32"
       height="32"
       x="0"
       y="0" />
    <path
       d="m 15.307506,3.7246026 c -1.00241,0.1058 -1.78083,0.334233 -2.62062,0.768381 -1.32709,0.690567 -2.2399,1.771132 -2.76088,3.263455 -0.0728,0.211699 -0.12323,0.395525 -0.11214,0.406565 0.0101,0.012 0.0901,-0.08358 0.17373,-0.206177 0.22951,-0.33424 0.89589,-0.935647 1.37221,-1.247549 0.77841,-0.512242 1.66873,-0.868864 2.7664,-1.102624 0.49288,-0.105808 0.73902,-0.2226736 1.88166,-0.2226736 1.15366,0 1.38323,0.1120666 1.87614,0.2226736 1.80865,0.39552 3.11356,1.119478 4.07103,2.255509 0.14572,0.178201 0.26893,0.311881 0.26893,0.300841 0,-0.07221 -0.29099,-0.846501 -0.41437,-1.102633 -0.95181,-2.004883 -2.95118,-3.224548 -5.4934,-3.352609 -0.30867,-0.01599 -0.76242,-0.0057 -1.00867,0.01599 z"
       id="path4-36"
       style="fill:#00cccc;fill-opacity:1;stroke-width:0.00291195"
       inkscape:connector-curvature="0"
       sodipodi:nodetypes="cccccccsccscccc" />
    <path
       d="m 15.531496,7.9008236 c -0.5991,0.08921 -1.07513,0.228239 -1.58465,0.473331 -1.00798,0.48439 -1.78094,1.353258 -2.16726,2.4448374 l -0.0843,0.239579 0.29116,-0.278478 c 0.64382,-0.601424 1.48954,-1.0468824 2.48082,-1.3033024 0.4424,-0.117006 0.63282,-0.2338106 1.54006,-0.2338106 0.90724,0 1.09756,0.1161916 1.53995,0.2338106 0.96882,0.250622 1.83673,0.7015954 2.42486,1.2475434 0.17921,0.172801 0.2911,0.245096 0.2911,0.189405 0,-0.04441 -0.1288,-0.334249 -0.28003,-0.640323 -0.59363,-1.1752314 -1.61276,-1.9715014 -2.90634,-2.2610364 -0.41429,-0.09455 -1.25436,-0.156 -1.54555,-0.1116 z"
       id="path6-7"
       style="fill:#00cccc;fill-opacity:1;stroke-width:0.00291195"
       inkscape:connector-curvature="0"
       sodipodi:nodetypes="ccccccsccscccc" />
    <path
       d="m 4.8074965,12.044177 c -0.83448,0.111601 -1.42233,0.406561 -2.04401,1.030325 -0.49852,0.490191 -0.7841,0.969052 -0.96297,1.587312 -0.0951,0.339768 -0.10041,0.679516 -0.10041,5.318585 0,5.491078 -0.0169,5.218407 0.37513,6.042546 0.41441,0.868857 1.31053,1.598327 2.28492,1.876827 0.34722,0.09457 0.86816,0.10023 11.6199795,0.10023 9.26775,0 11.31177,-0.012 11.56376,-0.0782 1.01907,-0.245098 1.96549,-0.996918 2.3967,-1.899185 0.39191,-0.824145 0.37525,-0.551466 0.37525,-6.042552 0,-5.546821 0.022,-5.246277 -0.40885,-6.0704 -0.29105,-0.556989 -0.96878,-1.225191 -1.52295,-1.498165 -0.8848,-0.428908 0.2575,-0.389702 -12.15193,-0.401025 -6.1155,-0.0056 -11.2564395,0.012 -11.4243495,0.03361 z m 1.21531,3.6311 c 0.11773,0.111601 0.12874,0.161399 0.12874,0.762879 0,0.579039 -0.0113,0.651652 -0.12315,0.768392 -0.11214,0.116989 -0.16241,0.127993 -0.76706,0.127993 -0.58226,0 -0.65531,-0.012 -0.77302,-0.122604 -0.11764,-0.111195 -0.12875,-0.16139 -0.12875,-0.762883 0,-0.579312 0.0115,-0.651632 0.12327,-0.768666 0.11212,-0.116986 0.16233,-0.127991 0.76704,-0.127991 0.58254,3.03e-4 0.65525,0.012 0.77293,0.122798 z m 3.5840695,0 c 0.1177,0.111601 0.12873,0.161399 0.12873,0.762879 0,0.579039 -0.0114,0.651652 -0.12325,0.768392 -0.1120799,0.116989 -0.1623299,0.127993 -0.7670195,0.127993 -0.5822,0 -0.65526,-0.012 -0.77298,-0.122604 -0.11767,-0.111195 -0.12872,-0.16139 -0.12872,-0.762883 0,-0.579312 0.0113,-0.651632 0.12318,-0.768666 0.11218,-0.116986 0.16239,-0.127991 0.76709,-0.127991 0.5823,3.03e-4 0.6552996,0.012 0.7729695,0.122798 z m 3.5837,0 c 0.11769,0.111601 0.1288,0.161399 0.1288,0.762879 0,0.579039 -0.0114,0.651652 -0.12321,0.768392 -0.11199,0.116798 -0.16239,0.127993 -0.76714,0.127993 -0.58229,0 -0.65526,-0.012 -0.77286,-0.122604 -0.11762,-0.111195 -0.12881,-0.16139 -0.12881,-0.762883 0,-0.579312 0.0115,-0.651632 0.12325,-0.768666 0.11207,-0.116986 0.16233,-0.127991 0.76706,-0.127991 0.58251,3.03e-4 0.65546,0.012 0.77291,0.122798 z m 3.58403,0 c 0.11767,0.111601 0.12877,0.161399 0.12877,0.762879 0,0.579039 -0.0114,0.651652 -0.12319,0.768392 -0.11214,0.116989 -0.1624,0.127993 -0.7671,0.127993 -0.58231,0 -0.65529,-0.012 -0.77292,-0.122604 -0.11768,-0.111195 -0.12876,-0.16139 -0.12876,-0.762883 0,-0.579312 0.0114,-0.651632 0.12317,-0.768666 0.11211,-0.116986 0.16239,-0.127991 0.76712,-0.127991 0.58249,3.03e-4 0.65524,0.012 0.77291,0.122798 z m 3.58399,0 c 0.11772,0.111601 0.1288,0.161399 0.1288,0.762879 0,0.579039 -0.0109,0.651652 -0.12322,0.768392 -0.11209,0.116989 -0.16236,0.127993 -0.7671,0.127993 -0.5822,0 -0.65521,-0.012 -0.77265,-0.122604 -0.11768,-0.111195 -0.12874,-0.16139 -0.12874,-0.762883 0,-0.579312 0.0114,-0.651632 0.12323,-0.768666 0.11215,-0.116986 0.16236,-0.127991 0.7671,-0.127991 0.58224,3.03e-4 0.65497,0.012 0.77258,0.122798 z m 3.58404,0 c 0.11767,0.111601 0.12877,0.161399 0.12877,0.762879 0,0.579039 -0.0115,0.651652 -0.1232,0.768392 -0.11202,0.116989 -0.16238,0.127993 -0.76709,0.127993 -0.58226,0 -0.65526,-0.012 -0.77264,-0.122604 -0.11767,-0.111195 -0.12876,-0.16139 -0.12876,-0.762883 0,-0.579312 0.0114,-0.651632 0.12325,-0.768666 0.11213,-0.116986 0.16232,-0.127991 0.76698,-0.127991 0.58231,3.03e-4 0.65502,0.012 0.77269,0.122798 z m 3.58403,0 c 0.11765,0.111601 0.12876,0.161399 0.12876,0.762879 0,0.579039 -0.0113,0.651652 -0.12323,0.768392 -0.11209,0.116798 -0.16233,0.127993 -0.76708,0.127993 -0.58221,0 -0.65522,-0.012 -0.77261,-0.122604 -0.11774,-0.111195 -0.12874,-0.16139 -0.12874,-0.762883 0,-0.579312 0.0113,-0.651632 0.12322,-0.768666 0.11219,-0.116986 0.16235,-0.127991 0.76701,-0.127991 0.58229,3.03e-4 0.65501,0.012 0.77267,0.122798 z M 7.8148165,19.239596 c 0.11776,0.1116 0.12882,0.161391 0.12882,0.762864 0,0.95802 0.12319,0.896738 -1.78651,0.896738 -1.92082,0 -1.79756,0.06119 -1.79756,-0.8854 0,-0.958032 -0.12326,-0.896753 1.78651,-0.896753 1.50059,0 1.53974,0.0056 1.66876,0.122607 z m 3.5837995,0 c 0.11766,0.1116 0.12874,0.161391 0.12874,0.762864 0,0.579057 -0.0114,0.651661 -0.1232,0.768378 -0.11216,0.117003 -0.16239,0.128 -0.76712,0.128 -0.58227,0 -0.65525,-0.012 -0.77292,-0.122598 -0.11767,-0.1116 -0.12877,-0.161404 -0.12877,-0.762869 0,-0.579341 0.0115,-0.651634 0.12319,-0.76868 0.11214,-0.116999 0.16239,-0.127996 0.76716,-0.127996 0.58249,2.95e-4 0.65548,0.012 0.77292,0.122804 z m 3.58396,0 c 0.11771,0.1116 0.12884,0.161391 0.12884,0.762864 0,0.579057 -0.0108,0.651661 -0.12326,0.768378 -0.11207,0.117003 -0.16233,0.128 -0.76707,0.128 -0.58227,0 -0.65525,-0.012 -0.77293,-0.122598 -0.11767,-0.1116 -0.12878,-0.161404 -0.12878,-0.762869 0,-0.579341 0.0111,-0.651634 0.12319,-0.76868 0.11212,-0.116999 0.16241,-0.127996 0.7672,-0.127996 0.58245,2.95e-4 0.65545,0.012 0.77281,0.122804 z m 3.58401,0 c 0.1177,0.1116 0.1288,0.161391 0.1288,0.762864 0,0.579057 -0.0114,0.651661 -0.1232,0.768378 -0.112,0.117003 -0.1624,0.128 -0.76708,0.128 -0.58232,0 -0.65529,-0.012 -0.77263,-0.122598 -0.11732,-0.1116 -0.12883,-0.161404 -0.12883,-0.762869 0,-0.579341 0.0113,-0.651634 0.12323,-0.76868 0.11222,-0.116999 0.16234,-0.127996 0.76704,-0.127996 0.58228,2.95e-4 0.65504,0.012 0.77267,0.122804 z m 3.58406,0 c 0.11765,0.1116 0.12875,0.161391 0.12875,0.762864 0,0.579057 -0.0113,0.651661 -0.12321,0.768378 -0.1121,0.117003 -0.16237,0.128 -0.76709,0.128 -0.58229,0 -0.65524,-0.012 -0.77263,-0.122598 -0.11774,-0.1116 -0.12879,-0.161404 -0.12879,-0.762869 0,-0.579341 0.0114,-0.651634 0.12325,-0.76868 0.11212,-0.116999 0.16232,-0.127996 0.76705,-0.127996 0.58227,2.95e-4 0.65498,0.012 0.77267,0.122804 z m 5.37602,0 c 0.11765,0.1116 0.12876,0.161391 0.12876,0.762864 0,0.95802 0.12325,0.896738 -1.78643,0.896738 -1.92079,0 -1.79759,0.06119 -1.79759,-0.8854 0,-0.958032 -0.1232,-0.896753 1.78649,-0.896753 1.50059,0 1.54001,0.0056 1.66877,0.122607 z M 6.9186765,22.803903 c 0.11772,0.111209 0.12881,0.161405 0.12881,0.762872 0,0.935654 0.0561,0.896738 -1.33822,0.896738 -1.40577,0 -1.3497,0.03337 -1.3497,-0.88543 0,-0.935632 -0.0561,-0.896712 1.33828,-0.896712 1.04154,0 1.09764,0.0056 1.22083,0.122601 z m 16.1279095,0 c 0.1176,0.111209 0.12869,0.161405 0.12869,0.762872 0,0.579049 -0.0115,0.65163 -0.12322,0.768374 l -0.11767,0.128003 h -6.9213 -6.9160395 l -0.12885,-0.122589 c -0.11766,-0.111601 -0.12872,-0.161416 -0.12872,-0.762875 0,-0.579346 0.0114,-0.651642 0.1232,-0.768676 l 0.11765,-0.128007 h 6.9215695 6.91604 z m 4.48008,0 c 0.11765,0.111209 0.12876,0.161405 0.12876,0.762872 0,0.935654 0.0561,0.896738 -1.3385,0.896738 -1.40553,0 -1.34963,0.03337 -1.34963,-0.88543 0,-0.935632 -0.0561,-0.896712 1.3385,-0.896712 1.0416,0 1.09764,0.0056 1.22087,0.122601 z"
       id="path8-5"
       style="fill:#d3dae3;fill-opacity:1;stroke-width:0.00291195"
       inkscape:connector-curvature="0" />
  </g>
  <g
     id="22-22-input-keyboard"
     transform="translate(-22,-213.99997)">
    <rect
       y="0"
       x="0"
       height="22"
       width="22"
       id="rect4147"
       style="fill:none;fill-rule:evenodd;stroke:none;stroke-width:1px;stroke-linecap:butt;stroke-linejoin:miter;stroke-opacity:1" />
    <path
       d="m 10.571949,2.7164341 c -0.6682934,0.07053 -1.1872754,0.222827 -1.7471384,0.512254 -0.884762,0.460375 -1.493292,1.18075 -1.840579,2.175633 -0.04847,0.141134 -0.08215,0.263681 -0.07475,0.271041 0.0037,0.008 0.05976,-0.05573 0.115827,-0.137454 0.153008,-0.222827 0.597239,-0.623762 0.914741,-0.831695 0.518983,-0.341495 1.112523,-0.579242 1.844277,-0.735083 C 10.112925,3.9006001 10.277029,3.78897 11.038762,3.78897 c 0.76913,0 0.922139,0.1084301 1.250737,0.1821601 1.205769,0.263681 2.075736,0.746322 2.71405,1.503671 0.09713,0.118801 0.179289,0.207921 0.179289,0.200561 0,-0.04813 -0.194084,-0.564335 -0.276233,-0.735082 -0.634615,-1.336591 -1.967502,-2.149699 -3.662274,-2.235073 -0.205763,-0.01067 -0.508276,-0.004 -0.672381,0.01067 z"
       id="path4-35"
       style="fill:#00cccc;fill-opacity:1;stroke-width:0.00194131"
       inkscape:connector-curvature="0"
       sodipodi:nodetypes="cccccccsccscccc" />
    <path
       d="m 10.721259,5.6005911 c -0.399458,0.05947 -0.716765,0.15216 -1.0564594,0.315561 -0.671991,0.322921 -1.187275,0.902162 -1.44482,1.629884 l -0.05607,0.159721 0.194083,-0.185654 c 0.429242,-0.400948 0.992997,-0.697922 1.6538934,-0.868869 0.29492,-0.078 0.421843,-0.1892641 1.026674,-0.1892641 0.604832,0 0.731755,0.1108641 1.026675,0.1892641 0.645906,0.16708 1.224457,0.467734 1.616517,0.831695 0.11952,0.115201 0.194083,0.163401 0.194083,0.126267 0,-0.0296 -0.08585,-0.222827 -0.186686,-0.426881 -0.395758,-0.783482 -1.075147,-1.314324 -1.937523,-1.507351 -0.276232,-0.06307 -0.83629,-0.104 -1.030373,-0.0744 z"
       id="path6-62"
       style="fill:#00cccc;fill-opacity:1;stroke-width:0.00194131"
       inkscape:connector-curvature="0"
       sodipodi:nodetypes="scccccsccsccss" />
    <path
       d="m 3.5719106,8.3628251 c -0.556359,0.0744 -0.948224,0.271041 -1.36267,0.686882 -0.332297,0.326787 -0.522682,0.646028 -0.642013,1.0582029 -0.06347,0.226507 -0.06716,0.453014 -0.06716,3.545716 0,3.660717 -0.01107,3.478929 0.250147,4.028358 0.276233,0.579241 0.873667,1.065549 1.523271,1.251217 0.23146,0.06307 0.578746,0.0668 7.7465874,0.0668 6.178542,0 7.541212,-0.008 7.70921,-0.05213 0.679389,-0.163401 1.310305,-0.664615 1.597829,-1.266124 0.261243,-0.549428 0.250147,-0.367641 0.250147,-4.028357 0,-3.697877 0.01499,-3.497517 -0.272534,-4.0469319 -0.194083,-0.371325 -0.645906,-0.816793 -1.015384,-0.998779 -0.589842,-0.285934 0.171696,-0.259801 -8.10127,-0.267347 -4.0769164,-0.004 -7.5042264,0.008 -7.6161604,0.0224 z m 0.810205,2.4207269 c 0.07845,0.0744 0.08585,0.1076 0.08585,0.508588 0,0.386027 -0.0073,0.434427 -0.08215,0.512254 -0.07475,0.078 -0.108241,0.08533 -0.511391,0.08533 -0.388166,0 -0.436833,-0.008 -0.515284,-0.08173 -0.07845,-0.07413 -0.08585,-0.1076 -0.08585,-0.508588 0,-0.386214 0.0073,-0.434428 0.08215,-0.512441 0.07475,-0.078 0.10824,-0.08533 0.511391,-0.08533 0.388361,2e-4 0.436833,0.008 0.515284,0.08187 z m 2.389345,0 c 0.07845,0.0744 0.08585,0.1076 0.08585,0.508588 0,0.386027 -0.0073,0.434427 -0.08215,0.512254 -0.07475,0.078 -0.10824,0.08533 -0.511391,0.08533 -0.388166,0 -0.436833,-0.008 -0.515284,-0.08173 -0.07845,-0.07413 -0.08585,-0.1076 -0.08585,-0.508588 0,-0.386214 0.0073,-0.434428 0.08215,-0.512441 0.07475,-0.078 0.10824,-0.08533 0.51139,-0.08533 0.388166,2e-4 0.436833,0.008 0.515284,0.08187 z m 2.389151,0 c 0.07845,0.0744 0.08585,0.1076 0.08585,0.508588 0,0.386027 -0.0073,0.434427 -0.08215,0.512254 -0.07475,0.07787 -0.10824,0.08533 -0.51139,0.08533 -0.388167,0 -0.436834,-0.008 -0.515285,-0.08173 -0.07845,-0.07413 -0.08585,-0.1076 -0.08585,-0.508588 0,-0.386214 0.0073,-0.434428 0.08215,-0.512441 0.07475,-0.078 0.10824,-0.08533 0.511391,-0.08533 0.388361,2e-4 0.437028,0.008 0.515284,0.08187 z m 2.3893454,0 c 0.07845,0.0744 0.08585,0.1076 0.08585,0.508588 0,0.386027 -0.0073,0.434427 -0.08215,0.512254 -0.07475,0.078 -0.10824,0.08533 -0.51139,0.08533 -0.388166,0 -0.436833,-0.008 -0.515284,-0.08173 -0.07845,-0.07413 -0.08585,-0.1076 -0.08585,-0.508588 0,-0.386214 0.0073,-0.434428 0.08215,-0.512441 0.07475,-0.078 0.10824,-0.08533 0.511391,-0.08533 0.388361,2e-4 0.436833,0.008 0.515284,0.08187 z m 2.389345,0 c 0.07845,0.0744 0.08585,0.1076 0.08585,0.508588 0,0.386027 -0.0073,0.434427 -0.08215,0.512254 -0.07475,0.078 -0.10824,0.08533 -0.511391,0.08533 -0.388166,0 -0.436833,-0.008 -0.515089,-0.08173 -0.07845,-0.07413 -0.08585,-0.1076 -0.08585,-0.508588 0,-0.386214 0.0073,-0.434428 0.08215,-0.512441 0.07475,-0.078 0.10824,-0.08533 0.511391,-0.08533 0.388166,2e-4 0.436638,0.008 0.515089,0.08187 z m 2.389345,0 c 0.07845,0.0744 0.08585,0.1076 0.08585,0.508588 0,0.386027 -0.0073,0.434427 -0.08215,0.512254 -0.07475,0.078 -0.10824,0.08533 -0.511391,0.08533 -0.388166,0 -0.436833,-0.008 -0.515089,-0.08173 -0.07845,-0.07413 -0.08585,-0.1076 -0.08585,-0.508588 0,-0.386214 0.0073,-0.434428 0.08215,-0.512441 0.07475,-0.078 0.108241,-0.08533 0.511391,-0.08533 0.388166,2e-4 0.436639,0.008 0.515089,0.08187 z m 2.389346,0 c 0.07845,0.0744 0.08585,0.1076 0.08585,0.508588 0,0.386027 -0.0073,0.434427 -0.08215,0.512254 -0.07475,0.07787 -0.10824,0.08533 -0.511391,0.08533 -0.388166,0 -0.436833,-0.008 -0.515089,-0.08173 -0.07845,-0.07413 -0.08585,-0.1076 -0.08585,-0.508588 0,-0.386214 0.0073,-0.434428 0.08215,-0.512441 0.07475,-0.078 0.10824,-0.08533 0.511391,-0.08533 0.388166,2e-4 0.436639,0.008 0.51509,0.08187 z M 5.5767886,13.159758 c 0.07845,0.0744 0.08585,0.1076 0.08585,0.508575 0,0.638681 0.08215,0.597828 -1.190974,0.597828 -1.28052,0 -1.198371,0.0408 -1.198371,-0.590268 0,-0.638682 -0.08215,-0.597828 1.190974,-0.597828 1.000395,0 1.02648,0.004 1.112523,0.08173 z m 2.38915,0 c 0.07845,0.0744 0.08585,0.1076 0.08585,0.508575 0,0.386041 -0.0073,0.434441 -0.08215,0.512254 -0.07475,0.078 -0.108241,0.08533 -0.511391,0.08533 -0.388166,0 -0.436833,-0.008 -0.515284,-0.08173 -0.07845,-0.0744 -0.08585,-0.1076 -0.08585,-0.508574 0,-0.386228 0.0073,-0.434428 0.08215,-0.512455 0.07475,-0.078 0.108241,-0.08533 0.511391,-0.08533 0.388361,2.01e-4 0.437028,0.008 0.515284,0.08187 z m 2.3893454,0 c 0.07845,0.0744 0.08585,0.1076 0.08585,0.508575 0,0.386041 -0.0073,0.434441 -0.08215,0.512254 -0.07475,0.078 -0.10824,0.08533 -0.5113914,0.08533 -0.388166,0 -0.436833,-0.008 -0.515284,-0.08173 -0.07845,-0.0744 -0.08585,-0.1076 -0.08585,-0.508574 0,-0.386228 0.0073,-0.434428 0.08215,-0.512455 0.07475,-0.078 0.10824,-0.08533 0.51139,-0.08533 0.3883614,2.01e-4 0.4370284,0.008 0.5152844,0.08187 z m 2.389346,0 c 0.07845,0.0744 0.08585,0.1076 0.08585,0.508575 0,0.386041 -0.0073,0.434441 -0.08215,0.512254 -0.07475,0.078 -0.10824,0.08533 -0.511391,0.08533 -0.388166,0 -0.436833,-0.008 -0.515089,-0.08173 -0.07825,-0.0744 -0.08585,-0.1076 -0.08585,-0.508574 0,-0.386228 0.0073,-0.434428 0.08215,-0.512455 0.07475,-0.078 0.108241,-0.08533 0.511391,-0.08533 0.388167,2.01e-4 0.436639,0.008 0.51509,0.08187 z m 2.389345,0 c 0.07845,0.0744 0.08585,0.1076 0.08585,0.508575 0,0.386041 -0.0073,0.434441 -0.08215,0.512254 -0.07475,0.078 -0.10824,0.08533 -0.51139,0.08533 -0.388167,0 -0.436833,-0.008 -0.51509,-0.08173 -0.07845,-0.0744 -0.08585,-0.1076 -0.08585,-0.508574 0,-0.386228 0.0073,-0.434428 0.08215,-0.512455 0.07475,-0.078 0.10824,-0.08533 0.51139,-0.08533 0.388167,2.01e-4 0.436639,0.008 0.51509,0.08187 z m 3.584018,0 c 0.07845,0.0744 0.08585,0.1076 0.08585,0.508575 0,0.638681 0.08215,0.597828 -1.190974,0.597828 -1.280521,0 -1.198371,0.0408 -1.198371,-0.590268 0,-0.638682 -0.08215,-0.597828 1.190974,-0.597828 1.000395,0 1.026674,0.004 1.112523,0.08173 z M 4.9793546,15.535965 c 0.07845,0.07413 0.08585,0.1076 0.08585,0.508574 0,0.623775 0.03737,0.597829 -0.892159,0.597829 -0.937128,0 -0.899752,0.02227 -0.899752,-0.590282 0,-0.623762 -0.03737,-0.597815 0.89216,-0.597815 0.694378,0 0.731754,0.004 0.813903,0.08173 z m 10.7518594,0 c 0.07845,0.07413 0.08585,0.1076 0.08585,0.508574 0,0.386028 -0.0073,0.434428 -0.08215,0.512255 l -0.07845,0.08533 H 11.04227 6.4315776 l -0.08585,-0.08173 c -0.07845,-0.0744 -0.08585,-0.1076 -0.08585,-0.508574 0,-0.386228 0.0073,-0.434428 0.08215,-0.512455 l 0.07845,-0.08533 h 4.6143914 4.610693 z m 2.986779,0 c 0.07845,0.07413 0.08585,0.1076 0.08585,0.508574 0,0.623775 0.03737,0.597829 -0.892354,0.597829 -0.937128,0 -0.899752,0.02227 -0.899752,-0.590282 0,-0.623762 -0.03737,-0.597815 0.892354,-0.597815 0.694378,0 0.731754,0.004 0.813904,0.08173 z"
       id="path8-91"
       style="fill:#d3dae3;fill-opacity:1;stroke-width:0.00194131"
       inkscape:connector-curvature="0" />
  </g>
</svg>
